# xmcd
#
# Track frame offsets:
#	150
#	26286
#	56085
#	78879
#	99200
#	129950
#	153730
#	169530
#	183297
#	210959
#	238019
#	254592
#
# Disc length: 3810 seconds
#
# Revision: 1
# Processed by: cddbd v1.5.1PL0 Copyright (c) Steve Scherf et al.
# Submitted via: audiograbber 1.83.01
#
DISCID=8c0ee00c
DTITLE=Hobo Blues Band - Idegen tollak CD2
DYEAR=2004
DGENRE=Blues
TTITLE0=Énekes a mikrofonnál
TTITLE1=Meghívás bluesra
TTITLE2=Nem szeretem
TTITLE3=Adjatok a kutyáknak húst
TTITLE4=Idö
TTITLE5=Rómeó vérzik
TTITLE6=Dal a bolondokházáról
TTITLE7=Zúzmara
TTITLE8=Tarts ki
TTITLE9=Matilda
TTITLE10=Farkashajsza
TTITLE11=Az én cigánydalom
EXTD=
EXTT0=
EXTT1=
EXTT2=
EXTT3=
EXTT4=
EXTT5=
EXTT6=
EXTT7=
EXTT8=
EXTT9=
EXTT10=
EXTT11=
PLAYORDER=
